<svg xmlns="http://www.w3.org/2000/svg" xmlns:xlink="http://www.w3.org/1999/xlink" viewBox="0,0,256,256" width="100px" height="100px" fill-rule="nonzero"><g fill="#ffffff" fill-rule="nonzero" stroke="none" stroke-width="1" stroke-linecap="butt" stroke-linejoin="miter" stroke-miterlimit="10" stroke-dasharray="" stroke-dashoffset="0" font-family="none" font-weight="none" font-size="none" text-anchor="none" style="mix-blend-mode: normal"><g transform="scale(5.12,5.12)"><path d="M24.69922,2c-5.04244,0 -9.02241,1.47781 -11.70312,4.22656c-2.68072,2.74875 -3.99609,6.68786 -3.99609,11.37305c0,1.94061 0.85351,5.62396 1.5918,7.83398c-0.79868,0.70472 -1.7851,1.87358 -1.58594,3.86523c-0.00001,0.0026 -0.00001,0.00521 0,0.00781c0.38757,3.585 2.68716,4.83055 3.44141,5.19141c0.28986,1.66087 1.15649,3.72232 2.57226,5.83398c1.5205,2.26786 3.60253,4.46639 6.14453,5.69531c0.9006,1.1723 2.25551,1.97266 3.83594,1.97266c1.58142,0 2.93737,-0.80104 3.83789,-1.97461c2.54239,-1.23041 4.60249,-3.43069 6.09766,-5.69922c1.39277,-2.11317 2.23478,-4.17765 2.51953,-5.83008c0.75463,-0.3614 3.03672,-1.60384 3.43359,-5.16797c0.29543,-2.03441 -0.78075,-3.23488 -1.48633,-3.88867c0.70577,-2.21518 1.59766,-5.64175 1.59766,-9.43945c0,-1.74583 -0.35653,-4.12362 -1.53125,-6.19336c-1.10129,-1.94037 -3.09374,-3.53207 -5.92578,-3.73047c-1.27005,-1.96249 -4.09287,-4.07617 -8.84375,-4.07617zM24.69922,4c4.48055,0 6.71608,2.14297 7.41797,3.46875c0.17339,0.3267 0.51295,0.53104 0.88281,0.53125c2.45476,0 3.80519,1.16271 4.73047,2.79297c0.92528,1.63026 1.26953,3.75286 1.26953,5.20703c0,3.72906 -0.96952,7.34606 -1.64844,9.38281c-0.13267,0.39768 -0.00323,0.83589 0.32422,1.09766c0.5127,0.41016 1.45869,1.07485 1.23438,2.57031c-0.00158,0.01364 -0.00289,0.02732 -0.00391,0.04102c-0.34656,3.20565 -2.63281,3.86328 -2.63281,3.86328c-0.36612,0.12639 -0.62635,0.45281 -0.66797,0.83789c-0.11709,1.0928 -0.95953,3.33738 -2.33984,5.43164c-1.38031,2.09427 -3.28922,4.08759 -5.38867,5.07031c-0.17222,0.08062 -0.31789,0.20867 -0.41992,0.36914c-0.52526,0.82539 -1.39036,1.33594 -2.45703,1.33594c-1.06667,0 -1.93178,-0.51054 -2.45703,-1.33594c-0.10203,-0.16047 -0.2477,-0.28852 -0.41992,-0.36914c-2.10191,-0.98387 -4.03824,-2.98041 -5.44336,-5.07617c-1.40512,-2.09577 -2.26893,-4.34468 -2.38477,-5.42578c-0.04162,-0.38508 -0.30185,-0.7115 -0.66797,-0.83789c0,0 -2.28244,-0.6581 -2.63086,-3.85937c-0.15087,-1.53324 0.80769,-2.26437 1.25781,-2.56445c0.38527,-0.25629 0.54441,-0.74342 0.38477,-1.17773c-0.62974,-1.70928 -1.63867,-6.44606 -1.63867,-7.75391c0,-4.31481 1.18345,-7.67532 3.42773,-9.97656c2.24428,-2.30125 5.61393,-3.62305 10.27149,-3.62305zM32.53711,11.58789c-0.03845,-0.00092 -0.07693,0.00039 -0.11523,0.00391c-0.02812,0.00207 -0.05614,0.00533 -0.08398,0.00976c-0.34291,0.05374 -0.63345,0.28143 -0.76758,0.60156c-0.01439,0.03043 -0.40643,0.87161 -1.55859,1.82813c-1.1728,0.97361 -3.04089,1.96875 -6.01172,1.96875c-1.86802,0 -4.20321,0.02329 -6.22852,0.75977c-1.01265,0.36824 -1.96551,0.93246 -2.66602,1.80859c-0.70051,0.87613 -1.10547,2.04761 -1.10547,3.43164c-0.0051,0.36064 0.18438,0.69608 0.49587,0.87789c0.3115,0.18181 0.69676,0.18181 1.00825,0c0.3115,-0.18181 0.50097,-0.51725 0.49587,-0.87789c0,-1.01597 0.25715,-1.67027 0.66602,-2.18164c0.40887,-0.51137 1.01422,-0.89597 1.78906,-1.17773c1.54969,-0.56352 3.71294,-0.64062 5.54492,-0.64062c3.42917,0 5.81186,-1.20333 7.28906,-2.42969c0.51542,-0.42789 0.8056,-0.8176 1.125,-1.20703c0.86445,1.27835 2.58594,4.06494 2.58594,7.63672c-0.0051,0.36064 0.18438,0.69608 0.49587,0.87789c0.3115,0.18181 0.69676,0.18181 1.00825,0c0.3115,-0.18181 0.50097,-0.51725 0.49587,-0.87789c0,-5.24513 -3.28904,-9.43466 -3.56641,-9.7832c-0.14731,-0.36915 -0.49924,-0.61603 -0.89648,-0.62891zM19.5,27c-0.82843,0 -1.5,0.67157 -1.5,1.5c0,0.82843 0.67157,1.5 1.5,1.5c0.82843,0 1.5,-0.67157 1.5,-1.5c0,-0.82843 -0.67157,-1.5 -1.5,-1.5zM30.5,27c-0.8,0 -1.5,0.7 -1.5,1.5c0,0.8 0.7,1.5 1.5,1.5c0.8,0 1.5,-0.7 1.5,-1.5c0,-0.8 -0.7,-1.5 -1.5,-1.5z"></path></g></g></svg>